<svg version="1.0" xmlns="http://www.w3.org/2000/svg"
 width="57.000000pt" height="57.000000pt" viewBox="0 0 57.000000 57.000000"
 preserveAspectRatio="xMidYMid meet"> 

<rect width="100%" height="100%" fill="#48ec64"/>
<g transform="translate(0.000000,57.000000) scale(0.100000,-0.100000)"
fill="#000000" stroke="none">
<path d="M142 478 c-8 -8 -12 -55 -12 -145 0 -157 2 -160 85 -114 l55 31 0
-44 c0 -48 -8 -40 103 -106 28 -16 37 -17 51 -7 15 11 9 17 -53 52 -70 40 -71
40 -71 82 0 41 1 42 71 81 63 35 69 41 53 50 -15 8 -30 4 -71 -19 l-53 -30 0
49 0 50 -71 41 c-39 23 -72 41 -73 41 -1 0 -7 -5 -14 -12z m128 -140 c0 -44
-2 -47 -44 -72 -25 -14 -47 -26 -50 -26 -3 0 -6 45 -6 101 l0 100 50 -28 c49
-27 50 -29 50 -75z"/>
</g>
</svg>
